<mxfile host="app.diagrams.net" modified="2023-01-18T15:37:36.503Z" agent="5.0 (Windows)" etag="LxfMwk_n7hhrXHrrr5WV" version="20.8.5" type="github">
  <diagram name="Page-1" id="6133507b-19e7-1e82-6fc7-422aa6c4b21f">
    <mxGraphModel dx="1059" dy="525" grid="1" gridSize="10" guides="1" tooltips="1" connect="1" arrows="1" fold="1" page="1" pageScale="1" pageWidth="1100" pageHeight="850" background="none" math="0" shadow="0">
      <root>
        <mxCell id="0" />
        <mxCell id="1" parent="0" />
        <mxCell id="9TMIq2lv669NXwmXEwUK-1" value="Problem" style="swimlane;fontStyle=0;childLayout=stackLayout;horizontal=1;startSize=30;horizontalStack=0;resizeParent=1;resizeParentMax=0;resizeLast=0;collapsible=1;marginBottom=0;whiteSpace=wrap;html=1;" vertex="1" parent="1">
          <mxGeometry x="250" y="180" width="140" height="90" as="geometry" />
        </mxCell>
        <mxCell id="9TMIq2lv669NXwmXEwUK-2" value="Add to document description" style="text;strokeColor=none;fillColor=none;align=left;verticalAlign=middle;spacingLeft=4;spacingRight=4;overflow=hidden;points=[[0,0.5],[1,0.5]];portConstraint=eastwest;rotatable=0;whiteSpace=wrap;html=1;" vertex="1" parent="9TMIq2lv669NXwmXEwUK-1">
          <mxGeometry y="30" width="140" height="30" as="geometry" />
        </mxCell>
        <mxCell id="9TMIq2lv669NXwmXEwUK-3" value="Citation" style="text;strokeColor=none;fillColor=none;align=left;verticalAlign=middle;spacingLeft=4;spacingRight=4;overflow=hidden;points=[[0,0.5],[1,0.5]];portConstraint=eastwest;rotatable=0;whiteSpace=wrap;html=1;" vertex="1" parent="9TMIq2lv669NXwmXEwUK-1">
          <mxGeometry y="60" width="140" height="30" as="geometry" />
        </mxCell>
        <mxCell id="9TMIq2lv669NXwmXEwUK-10" value="" style="swimlane;startSize=0;" vertex="1" parent="1">
          <mxGeometry x="430" y="160" width="160" height="470" as="geometry" />
        </mxCell>
        <mxCell id="9TMIq2lv669NXwmXEwUK-12" value="User Interface" style="swimlane;fontStyle=0;childLayout=stackLayout;horizontal=1;startSize=30;horizontalStack=0;resizeParent=1;resizeParentMax=0;resizeLast=0;collapsible=1;marginBottom=0;whiteSpace=wrap;html=1;" vertex="1" parent="9TMIq2lv669NXwmXEwUK-10">
          <mxGeometry x="10" y="20" width="140" height="120" as="geometry" />
        </mxCell>
        <mxCell id="9TMIq2lv669NXwmXEwUK-13" value="Helper Tools" style="text;strokeColor=none;fillColor=none;align=left;verticalAlign=middle;spacingLeft=4;spacingRight=4;overflow=hidden;points=[[0,0.5],[1,0.5]];portConstraint=eastwest;rotatable=0;whiteSpace=wrap;html=1;" vertex="1" parent="9TMIq2lv669NXwmXEwUK-12">
          <mxGeometry y="30" width="140" height="30" as="geometry" />
        </mxCell>
        <mxCell id="9TMIq2lv669NXwmXEwUK-14" value="Troubleshooting" style="text;strokeColor=none;fillColor=none;align=left;verticalAlign=middle;spacingLeft=4;spacingRight=4;overflow=hidden;points=[[0,0.5],[1,0.5]];portConstraint=eastwest;rotatable=0;whiteSpace=wrap;html=1;" vertex="1" parent="9TMIq2lv669NXwmXEwUK-12">
          <mxGeometry y="60" width="140" height="30" as="geometry" />
        </mxCell>
        <mxCell id="9TMIq2lv669NXwmXEwUK-15" value="Error Feedbacks" style="text;strokeColor=none;fillColor=none;align=left;verticalAlign=middle;spacingLeft=4;spacingRight=4;overflow=hidden;points=[[0,0.5],[1,0.5]];portConstraint=eastwest;rotatable=0;whiteSpace=wrap;html=1;" vertex="1" parent="9TMIq2lv669NXwmXEwUK-12">
          <mxGeometry y="90" width="140" height="30" as="geometry" />
        </mxCell>
        <mxCell id="9TMIq2lv669NXwmXEwUK-11" value="" style="swimlane;startSize=0;" vertex="1" parent="1">
          <mxGeometry x="620" y="160" width="160" height="470" as="geometry" />
        </mxCell>
        <mxCell id="9TMIq2lv669NXwmXEwUK-9" value="" style="swimlane;startSize=0;" vertex="1" parent="1">
          <mxGeometry x="240" y="160" width="160" height="470" as="geometry" />
        </mxCell>
        <mxCell id="9TMIq2lv669NXwmXEwUK-5" value="Proposed Solution" style="swimlane;fontStyle=0;childLayout=stackLayout;horizontal=1;startSize=30;horizontalStack=0;resizeParent=1;resizeParentMax=0;resizeLast=0;collapsible=1;marginBottom=0;whiteSpace=wrap;html=1;" vertex="1" parent="9TMIq2lv669NXwmXEwUK-9">
          <mxGeometry x="10" y="320" width="140" height="120" as="geometry" />
        </mxCell>
        <mxCell id="9TMIq2lv669NXwmXEwUK-6" value="Item 1" style="text;strokeColor=none;fillColor=none;align=left;verticalAlign=middle;spacingLeft=4;spacingRight=4;overflow=hidden;points=[[0,0.5],[1,0.5]];portConstraint=eastwest;rotatable=0;whiteSpace=wrap;html=1;" vertex="1" parent="9TMIq2lv669NXwmXEwUK-5">
          <mxGeometry y="30" width="140" height="30" as="geometry" />
        </mxCell>
        <mxCell id="9TMIq2lv669NXwmXEwUK-7" value="Item 2" style="text;strokeColor=none;fillColor=none;align=left;verticalAlign=middle;spacingLeft=4;spacingRight=4;overflow=hidden;points=[[0,0.5],[1,0.5]];portConstraint=eastwest;rotatable=0;whiteSpace=wrap;html=1;" vertex="1" parent="9TMIq2lv669NXwmXEwUK-5">
          <mxGeometry y="60" width="140" height="30" as="geometry" />
        </mxCell>
        <mxCell id="9TMIq2lv669NXwmXEwUK-8" value="Item 3" style="text;strokeColor=none;fillColor=none;align=left;verticalAlign=middle;spacingLeft=4;spacingRight=4;overflow=hidden;points=[[0,0.5],[1,0.5]];portConstraint=eastwest;rotatable=0;whiteSpace=wrap;html=1;" vertex="1" parent="9TMIq2lv669NXwmXEwUK-5">
          <mxGeometry y="90" width="140" height="30" as="geometry" />
        </mxCell>
        <mxCell id="9TMIq2lv669NXwmXEwUK-16" value="To Do" style="text;strokeColor=none;fillColor=none;align=left;verticalAlign=middle;spacingLeft=4;spacingRight=4;overflow=hidden;points=[[0,0.5],[1,0.5]];portConstraint=eastwest;rotatable=0;whiteSpace=wrap;html=1;" vertex="1" parent="1">
          <mxGeometry x="250" y="120" width="140" height="30" as="geometry" />
        </mxCell>
        <mxCell id="9TMIq2lv669NXwmXEwUK-17" value="Doing" style="text;strokeColor=none;fillColor=none;align=left;verticalAlign=middle;spacingLeft=4;spacingRight=4;overflow=hidden;points=[[0,0.5],[1,0.5]];portConstraint=eastwest;rotatable=0;whiteSpace=wrap;html=1;" vertex="1" parent="1">
          <mxGeometry x="440" y="120" width="140" height="30" as="geometry" />
        </mxCell>
        <mxCell id="9TMIq2lv669NXwmXEwUK-18" value="Done" style="text;strokeColor=none;fillColor=none;align=left;verticalAlign=middle;spacingLeft=4;spacingRight=4;overflow=hidden;points=[[0,0.5],[1,0.5]];portConstraint=eastwest;rotatable=0;whiteSpace=wrap;html=1;" vertex="1" parent="1">
          <mxGeometry x="630" y="120" width="140" height="30" as="geometry" />
        </mxCell>
      </root>
    </mxGraphModel>
  </diagram>
</mxfile>
